<svg width="283" height="192" viewBox="0 0 283 192" fill="none" xmlns="http://www.w3.org/2000/svg">
<path d="M27.5524 177.642C26.0106 176.597 24.9041 174.98 24.2575 172.778C23.611 170.577 23.2753 167.653 23.2753 163.996V159.021C23.2753 155.326 23.6483 152.366 24.3943 150.127C25.1403 147.888 26.309 146.258 27.8881 145.238C29.4671 144.218 31.5435 143.696 34.1172 143.696C36.6536 143.696 38.6803 144.218 40.2096 145.263C41.7389 146.308 42.8579 147.937 43.5666 150.151C44.2753 152.366 44.6234 155.326 44.6234 159.008V163.984C44.6234 167.641 44.2753 170.577 43.5914 172.791C42.9076 175.005 41.7886 176.635 40.2344 177.655C38.6927 178.675 36.5914 179.197 33.9431 179.197C31.2327 179.209 29.0941 178.687 27.5524 177.642ZM36.2184 172.268C36.6412 171.149 36.865 169.32 36.865 166.795V156.11C36.865 153.647 36.6536 151.856 36.2184 150.711C35.7957 149.579 35.0373 149.007 33.9556 149.007C32.9112 149.007 32.1776 149.579 31.7424 150.711C31.3197 151.843 31.0959 153.647 31.0959 156.11V166.795C31.0959 169.333 31.2948 171.161 31.7051 172.268C32.1154 173.388 32.8614 173.948 33.9431 173.948C35.0373 173.948 35.7833 173.388 36.2184 172.268Z" fill="#282828"/>
<path d="M146.254 164.083V165.812C146.254 168.014 146.316 169.656 146.453 170.763C146.577 171.858 146.851 172.666 147.261 173.164C147.671 173.662 148.305 173.923 149.163 173.923C150.32 173.923 151.115 173.475 151.538 172.579C151.961 171.684 152.197 170.191 152.234 168.101L158.886 168.487C158.924 168.785 158.936 169.196 158.936 169.718C158.936 172.89 158.066 175.254 156.337 176.821C154.609 178.388 152.16 179.172 148.989 179.172C145.185 179.172 142.524 177.978 140.995 175.59C139.465 173.201 138.707 169.519 138.707 164.519V158.536C138.707 153.386 139.503 149.641 141.082 147.266C142.661 144.902 145.371 143.72 149.213 143.72C151.861 143.72 153.888 144.206 155.305 145.176C156.723 146.146 157.717 147.651 158.302 149.704C158.874 151.756 159.172 154.592 159.172 158.2V164.071H146.254V164.083ZM147.236 149.654C146.851 150.139 146.59 150.935 146.453 152.03C146.316 153.124 146.254 154.804 146.254 157.03V159.493H151.899V157.03C151.899 154.829 151.824 153.162 151.675 152.03C151.526 150.898 151.252 150.089 150.867 149.629C150.481 149.169 149.872 148.932 149.051 148.932C148.231 148.92 147.622 149.169 147.236 149.654Z" fill="#282828"/>
<path d="M8.77796 163.437L0 131.729H7.65897L10.73 146.096C11.5133 149.641 12.0853 152.652 12.4583 155.152H12.6821C12.9432 153.361 13.5151 150.363 14.4103 146.146L17.5932 131.717H25.2522L16.3748 163.437V178.65H8.77796V163.437Z" fill="#282828"/>
<path d="M69.5275 144.367V178.637H63.4973L62.8259 174.445H62.6643C61.023 177.617 58.5612 179.197 55.2913 179.197C53.0159 179.197 51.3374 178.451 50.2557 176.958C49.174 175.465 48.6394 173.139 48.6394 169.967V144.367H56.3481V169.532C56.3481 171.062 56.5097 172.156 56.8454 172.803C57.1811 173.45 57.7406 173.786 58.5239 173.786C59.1953 173.786 59.8419 173.587 60.4511 173.176C61.0603 172.766 61.5204 172.244 61.8188 171.609V144.367H69.5275Z" fill="#282828"/>
<path d="M109.09 144.367V178.637H103.06L102.389 174.445H102.227C100.586 177.617 98.1243 179.197 94.8543 179.197C92.579 179.197 90.9005 178.451 89.8188 176.958C88.7371 175.465 88.2024 173.139 88.2024 169.967V144.367H95.9111V169.532C95.9111 171.062 96.0728 172.156 96.4085 172.803C96.7442 173.45 97.3036 173.786 98.0869 173.786C98.7583 173.786 99.4049 173.587 100.014 173.176C100.623 172.766 101.083 172.244 101.382 171.609V144.367H109.09Z" fill="#282828"/>
<path d="M90.4901 137.936H82.8312V178.637H75.2841V137.936H67.6252V131.729H90.4777V137.936H90.4901Z" fill="#282828"/>
<path d="M134.616 149.853C134.144 147.689 133.398 146.121 132.353 145.151C131.309 144.181 129.879 143.696 128.051 143.696C126.634 143.696 125.316 144.094 124.085 144.902C122.854 145.698 121.909 146.756 121.238 148.062H121.176V130H113.741V178.65H120.106L120.89 175.403H121.051C121.648 176.56 122.543 177.468 123.737 178.14C124.931 178.811 126.249 179.147 127.703 179.147C130.314 179.147 132.229 177.941 133.46 175.54C134.691 173.139 135.3 169.382 135.3 164.27V158.846C135.312 155.015 135.076 152.017 134.616 149.853ZM127.542 163.835C127.542 166.335 127.442 168.288 127.231 169.706C127.032 171.124 126.684 172.132 126.199 172.729C125.714 173.326 125.067 173.624 124.247 173.624C123.613 173.624 123.028 173.475 122.481 173.176C121.947 172.878 121.499 172.43 121.163 171.833V152.366C121.424 151.433 121.872 150.674 122.506 150.077C123.14 149.48 123.824 149.181 124.57 149.181C125.353 149.181 125.963 149.492 126.385 150.102C126.808 150.711 127.106 151.756 127.281 153.199C127.442 154.654 127.529 156.719 127.529 159.406V163.835H127.542Z" fill="#282828"/>
<path d="M214.642 17.0571C212.869 10.3534 207.621 5.06499 200.944 3.25252C188.872 1.18391e-06 140.435 0 140.435 0C140.435 0 92.0227 1.18391e-06 79.9258 3.25252C73.2737 5.04016 68.026 10.3286 66.2275 17.0571C63 29.223 63 54.6224 63 54.6224C63 54.6224 63 80.0218 66.2275 92.1877C68.0014 98.8913 73.2491 104.18 79.9258 105.992C92.0227 109.245 140.435 109.245 140.435 109.245C140.435 109.245 188.872 109.245 200.944 105.992C207.596 104.205 212.844 98.9162 214.642 92.1877C217.87 80.0218 217.87 54.6224 217.87 54.6224C217.87 54.6224 217.87 29.223 214.642 17.0571Z" fill="#282828"/>
<path d="M124.963 78.0355L165.195 54.6224L124.963 31.2092V78.0355Z" fill="white"/>
<path d="M208.017 21.8122C206.401 15.9571 201.622 11.3381 195.541 9.75504C184.547 6.91423 140.435 6.91423 140.435 6.91423C140.435 6.91423 96.3452 6.91423 85.3284 9.75504C79.2703 11.3164 74.4911 15.9354 72.8531 21.8122C69.9138 32.4381 69.9138 54.6224 69.9138 54.6224C69.9138 54.6224 69.9138 76.8067 72.8531 87.4326C74.4686 93.2877 79.2478 97.9067 85.3284 99.4897C96.3452 102.331 140.435 102.331 140.435 102.331C140.435 102.331 184.547 102.331 195.541 99.4897C201.6 97.9284 206.379 93.3094 208.017 87.4326C210.956 76.8067 210.956 54.6224 210.956 54.6224C210.956 54.6224 210.956 32.4381 208.017 21.8122Z" fill="white"/>
<ellipse cx="140.345" cy="56.1674" rx="26.5155" ry="26.7461" fill="#CA0000"/>
<ellipse cx="140.718" cy="55.7907" rx="18.4532" ry="18.6137" fill="white"/>
<ellipse cx="140.718" cy="55.7906" rx="5.27235" ry="5.3182" fill="#CA0000"/>
<path d="M167.452 179V155.938H163.257V153.641H167.452V150.57C167.452 147.977 168.108 145.984 169.421 144.594C170.749 143.203 172.593 142.508 174.952 142.508C176.015 142.508 177.007 142.641 177.929 142.906L177.718 145.25C176.937 145.062 176.085 144.969 175.163 144.969C173.616 144.969 172.413 145.453 171.554 146.422C170.694 147.375 170.265 148.734 170.265 150.5V153.641H176.312V155.938H170.265V179H167.452ZM179.78 165.945C179.78 163.508 180.249 161.312 181.187 159.359C182.14 157.406 183.476 155.891 185.194 154.812C186.929 153.719 188.89 153.172 191.077 153.172C194.452 153.172 197.187 154.359 199.28 156.734C201.374 159.094 202.421 162.227 202.421 166.133V166.719C202.421 169.172 201.944 171.383 200.991 173.352C200.054 175.305 198.726 176.812 197.007 177.875C195.288 178.938 193.327 179.469 191.124 179.469C187.765 179.469 185.03 178.289 182.921 175.93C180.827 173.555 179.78 170.414 179.78 166.508V165.945ZM182.593 166.719C182.593 169.75 183.374 172.242 184.937 174.195C186.515 176.133 188.577 177.102 191.124 177.102C193.655 177.102 195.702 176.133 197.265 174.195C198.843 172.242 199.632 169.672 199.632 166.484V165.945C199.632 164.008 199.273 162.234 198.554 160.625C197.835 159.016 196.827 157.773 195.53 156.898C194.233 156.008 192.749 155.562 191.077 155.562C188.577 155.562 186.538 156.547 184.96 158.516C183.382 160.469 182.593 163.031 182.593 166.203V166.719ZM217.608 177.102C219.562 177.102 221.194 176.555 222.507 175.461C223.835 174.352 224.554 172.922 224.663 171.172H227.358C227.28 172.719 226.796 174.133 225.905 175.414C225.015 176.68 223.827 177.672 222.343 178.391C220.874 179.109 219.296 179.469 217.608 179.469C214.28 179.469 211.64 178.312 209.687 176C207.749 173.688 206.78 170.578 206.78 166.672V165.828C206.78 163.328 207.218 161.117 208.093 159.195C208.968 157.273 210.218 155.789 211.843 154.742C213.483 153.695 215.398 153.172 217.585 153.172C220.366 153.172 222.655 154 224.452 155.656C226.265 157.312 227.233 159.492 227.358 162.195H224.663C224.538 160.211 223.819 158.609 222.507 157.391C221.21 156.172 219.569 155.562 217.585 155.562C215.054 155.562 213.085 156.477 211.679 158.305C210.288 160.133 209.593 162.695 209.593 165.992V166.812C209.593 170.047 210.288 172.57 211.679 174.383C213.085 176.195 215.062 177.102 217.608 177.102ZM249.296 175.789C247.608 178.242 244.913 179.469 241.21 179.469C238.507 179.469 236.452 178.688 235.046 177.125C233.64 175.547 232.921 173.219 232.89 170.141V153.641H235.679V169.789C235.679 174.617 237.632 177.031 241.538 177.031C245.601 177.031 248.171 175.352 249.249 171.992V153.641H252.062V179H249.343L249.296 175.789ZM274.562 172.555C274.562 171.164 273.999 170.047 272.874 169.203C271.765 168.359 270.085 167.703 267.835 167.234C265.585 166.75 263.835 166.203 262.585 165.594C261.351 164.969 260.429 164.211 259.819 163.32C259.226 162.43 258.929 161.352 258.929 160.086C258.929 158.086 259.765 156.438 261.437 155.141C263.108 153.828 265.249 153.172 267.858 153.172C270.687 153.172 272.952 153.875 274.655 155.281C276.374 156.672 277.233 158.492 277.233 160.742H274.421C274.421 159.258 273.796 158.023 272.546 157.039C271.312 156.055 269.749 155.562 267.858 155.562C266.015 155.562 264.53 155.977 263.405 156.805C262.296 157.617 261.741 158.68 261.741 159.992C261.741 161.258 262.202 162.242 263.124 162.945C264.062 163.633 265.757 164.266 268.21 164.844C270.679 165.422 272.523 166.039 273.741 166.695C274.976 167.352 275.89 168.141 276.483 169.062C277.077 169.984 277.374 171.102 277.374 172.414C277.374 174.555 276.507 176.266 274.773 177.547C273.054 178.828 270.804 179.469 268.023 179.469C265.069 179.469 262.671 178.758 260.827 177.336C258.999 175.898 258.085 174.086 258.085 171.898H260.898C261.007 173.539 261.694 174.82 262.96 175.742C264.241 176.648 265.929 177.102 268.023 177.102C269.976 177.102 271.554 176.672 272.757 175.812C273.96 174.953 274.562 173.867 274.562 172.555Z" fill="#CA0000"/>
</svg>
