<svg width="255" height="79" viewBox="0 0 255 79" fill="none" xmlns="http://www.w3.org/2000/svg">
<path d="M144.093 44.8758C142.801 44.0012 141.874 42.6477 141.332 40.8049C140.79 38.9621 140.508 36.5154 140.508 33.4544V29.2899C140.508 26.1977 140.821 23.7198 141.446 21.8457C142.072 19.9716 143.051 18.6077 144.375 17.754C145.698 16.9003 147.438 16.463 149.596 16.463C151.722 16.463 153.42 16.9003 154.702 17.7748C155.984 18.6494 156.922 20.0133 157.516 21.8665C158.11 23.7198 158.402 26.1977 158.402 29.2795V33.444C158.402 36.505 158.11 38.9621 157.537 40.8153C156.963 42.6686 156.026 44.0325 154.723 44.8862C153.431 45.7399 151.669 46.1772 149.45 46.1772C147.178 46.1876 145.386 45.7503 144.093 44.8758ZM151.357 40.378C151.711 39.441 151.899 37.9105 151.899 35.797V26.8536C151.899 24.7921 151.722 23.2929 151.357 22.335C151.003 21.3876 150.367 20.9087 149.46 20.9087C148.585 20.9087 147.97 21.3876 147.605 22.335C147.251 23.2825 147.063 24.7921 147.063 26.8536V35.797C147.063 37.9209 147.23 39.4514 147.574 40.378C147.918 41.3151 148.543 41.7836 149.45 41.7836C150.367 41.7836 150.992 41.3151 151.357 40.378Z" fill="#282828"/>
<path d="M243.584 33.5273V34.9745C243.584 36.8173 243.636 38.1916 243.751 39.1183C243.855 40.0345 244.084 40.7112 244.428 41.1277C244.772 41.5441 245.304 41.7628 246.023 41.7628C246.992 41.7628 247.659 41.3879 248.013 40.6383C248.367 39.8887 248.565 38.6393 248.597 36.8902L254.172 37.213C254.203 37.4628 254.214 37.8064 254.214 38.2437C254.214 40.8986 253.484 42.8768 252.036 44.1886C250.587 45.5005 248.534 46.1564 245.877 46.1564C242.688 46.1564 240.458 45.1569 239.176 43.1579C237.894 41.1589 237.259 38.0771 237.259 33.8917V28.8838C237.259 24.5735 237.925 21.4396 239.249 19.4511C240.572 17.4729 242.844 16.4838 246.064 16.4838C248.284 16.4838 249.983 16.8898 251.171 17.7019C252.359 18.514 253.192 19.7738 253.682 21.4917C254.162 23.2096 254.412 25.5834 254.412 28.6027V33.5169H243.584V33.5273ZM244.407 21.45C244.084 21.8561 243.866 22.5224 243.751 23.4386C243.636 24.3548 243.584 25.7604 243.584 27.624V29.6855H248.315V27.624C248.315 25.7812 248.253 24.3861 248.128 23.4386C248.003 22.4912 247.773 21.8144 247.45 21.4292C247.127 21.044 246.617 20.8462 245.929 20.8462C245.241 20.8358 244.73 21.044 244.407 21.45Z" fill="#282828"/>
<path d="M128.357 32.9859L121 6.44719H127.419L129.993 18.4724C130.65 21.4397 131.129 23.9592 131.442 26.0519H131.63C131.848 24.5527 132.328 22.0435 133.078 18.514L135.746 6.43678H142.165L134.725 32.9859V45.7191H128.357V32.9859Z" fill="#282828"/>
<path d="M179.275 17.0252V45.7087H174.221L173.658 42.2001H173.523C172.147 44.855 170.084 46.1772 167.343 46.1772C165.436 46.1772 164.029 45.5525 163.122 44.3032C162.216 43.0538 161.768 41.1069 161.768 38.4519V17.0252H168.229V38.0875C168.229 39.3681 168.364 40.2843 168.646 40.8257C168.927 41.3671 169.396 41.6482 170.052 41.6482C170.615 41.6482 171.157 41.4817 171.668 41.1381C172.178 40.7945 172.564 40.3572 172.814 39.8262V17.0252H179.275Z" fill="#282828"/>
<path d="M212.435 17.0252V45.7087H207.381L206.818 42.2001H206.683C205.307 44.855 203.244 46.1772 200.503 46.1772C198.596 46.1772 197.189 45.5525 196.282 44.3032C195.376 43.0538 194.928 41.1069 194.928 38.4519V17.0252H201.389V38.0875C201.389 39.3681 201.524 40.2843 201.806 40.8257C202.087 41.3671 202.556 41.6482 203.213 41.6482C203.775 41.6482 204.317 41.4817 204.828 41.1381C205.338 40.7945 205.724 40.3572 205.974 39.8262V17.0252H212.435Z" fill="#282828"/>
<path d="M196.845 11.6425H190.426V45.7087H184.1V11.6425H177.681V6.44719H196.835V11.6425H196.845Z" fill="#282828"/>
<path d="M233.83 21.6166C233.434 19.8051 232.809 18.4932 231.933 17.6811C231.058 16.869 229.859 16.463 228.328 16.463C227.14 16.463 226.035 16.7962 225.003 17.4729C223.972 18.1392 223.18 19.0242 222.617 20.1174H222.565V5H216.333V45.7191H221.668L222.325 43.0017H222.46C222.961 43.97 223.711 44.73 224.711 45.2922C225.712 45.8545 226.816 46.1356 228.036 46.1356C230.224 46.1356 231.829 45.1257 232.861 43.1163C233.892 41.1069 234.403 37.9626 234.403 33.6835V29.1441C234.414 25.9374 234.216 23.4282 233.83 21.6166ZM227.9 33.3191C227.9 35.4118 227.817 37.0464 227.64 38.2333C227.473 39.4202 227.181 40.2635 226.775 40.7633C226.368 41.263 225.826 41.5129 225.139 41.5129C224.607 41.5129 224.117 41.388 223.659 41.1381C223.211 40.8882 222.836 40.5134 222.554 40.0137V23.7198C222.773 22.9389 223.148 22.3038 223.68 21.8041C224.211 21.3043 224.784 21.0544 225.41 21.0544C226.066 21.0544 226.577 21.3147 226.931 21.8249C227.285 22.335 227.536 23.2096 227.681 24.4173C227.817 25.6355 227.89 27.3638 227.89 29.6126V33.3191H227.9Z" fill="#282828"/>
<path d="M109.666 12.3348C108.383 7.48704 104.588 3.66273 99.7595 2.35205C91.029 8.56139e-07 56 0 56 0C56 0 20.9889 8.56139e-07 12.2405 2.35205C7.42984 3.64477 3.63474 7.46909 2.33408 12.3348C0 21.1325 0 39.5 0 39.5C0 39.5 0 57.8675 2.33408 66.6652C3.61693 71.513 7.41203 75.3373 12.2405 76.648C20.9889 79 56 79 56 79C56 79 91.029 79 99.7595 76.648C104.57 75.3552 108.365 71.5309 109.666 66.6652C112 57.8675 112 39.5 112 39.5C112 39.5 112 21.1325 109.666 12.3348Z" fill="#282828"/>
<path d="M44.8107 56.4311L73.9064 39.5L44.8107 22.5689V56.4311Z" fill="white"/>
<path d="M104.874 15.7734C103.706 11.5393 100.25 8.19909 95.8524 7.05432C87.9014 5 56 5 56 5C56 5 24.1149 5 16.1476 7.05432C11.7665 8.18341 8.31021 11.5236 7.12568 15.7734C5 23.4575 5 39.5 5 39.5C5 39.5 5 55.5425 7.12568 63.2266C8.29399 67.4607 11.7502 70.8009 16.1476 71.9457C24.1149 74 56 74 56 74C56 74 87.9014 74 95.8524 71.9457C100.234 70.8166 103.69 67.4764 104.874 63.2266C107 55.5425 107 39.5 107 39.5C107 39.5 107 23.4575 104.874 15.7734Z" fill="white"/>
<ellipse cx="55.9347" cy="40.6172" rx="19.1757" ry="19.3414" fill="#CA0000"/>
<ellipse cx="56.2048" cy="40.3448" rx="13.3451" ry="13.4604" fill="white"/>
<ellipse cx="56.2048" cy="40.3448" rx="3.8129" ry="3.84584" fill="#CA0000"/>
<path d="M124.156 68V55.9883H121.971V54.792H124.156V53.1929C124.156 51.842 124.498 50.8044 125.181 50.0801C125.873 49.3558 126.833 48.9937 128.062 48.9937C128.615 48.9937 129.132 49.0628 129.612 49.2012L129.502 50.4219C129.096 50.3242 128.652 50.2754 128.172 50.2754C127.366 50.2754 126.74 50.5277 126.292 51.0322C125.844 51.5286 125.621 52.2367 125.621 53.1562V54.792H128.77V55.9883H125.621V68H124.156ZM130.577 61.2007C130.577 59.9312 130.821 58.7878 131.309 57.7705C131.806 56.7533 132.501 55.9639 133.396 55.4023C134.3 54.8327 135.321 54.5479 136.46 54.5479C138.218 54.5479 139.642 55.1663 140.733 56.4033C141.823 57.6322 142.369 59.2638 142.369 61.2983V61.6035C142.369 62.8812 142.12 64.0327 141.624 65.0581C141.136 66.0754 140.444 66.8607 139.549 67.4141C138.654 67.9674 137.632 68.2441 136.485 68.2441C134.735 68.2441 133.311 67.6297 132.212 66.4009C131.122 65.1639 130.577 63.5282 130.577 61.4937V61.2007ZM132.042 61.6035C132.042 63.1823 132.448 64.4803 133.262 65.4976C134.084 66.5067 135.158 67.0112 136.485 67.0112C137.803 67.0112 138.869 66.5067 139.683 65.4976C140.505 64.4803 140.916 63.1416 140.916 61.4814V61.2007C140.916 60.1916 140.729 59.2679 140.354 58.4297C139.98 57.5915 139.455 56.9445 138.78 56.4888C138.104 56.0249 137.331 55.793 136.46 55.793C135.158 55.793 134.096 56.3057 133.274 57.3311C132.452 58.3483 132.042 59.6829 132.042 61.335V61.6035ZM150.279 67.0112C151.296 67.0112 152.146 66.7264 152.83 66.1567C153.522 65.5789 153.896 64.8343 153.953 63.9229H155.357C155.316 64.7285 155.064 65.465 154.6 66.1323C154.136 66.7915 153.518 67.3083 152.745 67.6826C151.98 68.057 151.158 68.2441 150.279 68.2441C148.545 68.2441 147.17 67.6419 146.153 66.4375C145.144 65.2331 144.639 63.6136 144.639 61.5791V61.1396C144.639 59.8376 144.867 58.686 145.323 57.6851C145.778 56.6841 146.43 55.911 147.276 55.3657C148.13 54.8205 149.127 54.5479 150.267 54.5479C151.715 54.5479 152.907 54.9792 153.843 55.8418C154.787 56.7044 155.292 57.8397 155.357 59.2476H153.953C153.888 58.214 153.514 57.3799 152.83 56.7451C152.155 56.1104 151.3 55.793 150.267 55.793C148.948 55.793 147.923 56.269 147.19 57.2212C146.466 58.1733 146.104 59.508 146.104 61.2251V61.6523C146.104 63.3369 146.466 64.6512 147.19 65.5952C147.923 66.5392 148.952 67.0112 150.279 67.0112ZM166.783 66.3276C165.904 67.6053 164.5 68.2441 162.571 68.2441C161.163 68.2441 160.093 67.8372 159.361 67.0234C158.628 66.2015 158.254 64.9889 158.238 63.3857V54.792H159.69V63.2026C159.69 65.7173 160.708 66.9746 162.742 66.9746C164.858 66.9746 166.197 66.0998 166.758 64.3501V54.792H168.223V68H166.807L166.783 66.3276ZM179.942 64.6431C179.942 63.9188 179.649 63.3369 179.063 62.8975C178.485 62.458 177.61 62.1162 176.438 61.8721C175.267 61.6198 174.355 61.335 173.704 61.0176C173.061 60.6921 172.581 60.2974 172.264 59.8335C171.954 59.3696 171.8 58.8081 171.8 58.1489C171.8 57.1073 172.235 56.2487 173.106 55.5732C173.977 54.8896 175.092 54.5479 176.451 54.5479C177.924 54.5479 179.104 54.9141 179.991 55.6465C180.886 56.3708 181.333 57.3188 181.333 58.4907H179.869C179.869 57.7176 179.543 57.0747 178.892 56.562C178.249 56.0493 177.435 55.793 176.451 55.793C175.49 55.793 174.717 56.0086 174.131 56.4399C173.554 56.8631 173.265 57.4165 173.265 58.1001C173.265 58.7593 173.505 59.272 173.985 59.6382C174.473 59.9963 175.356 60.3258 176.634 60.627C177.92 60.9281 178.88 61.2495 179.515 61.5913C180.158 61.9331 180.634 62.3441 180.943 62.8242C181.252 63.3044 181.407 63.8862 181.407 64.5698C181.407 65.6847 180.955 66.5758 180.052 67.2432C179.157 67.9105 177.985 68.2441 176.536 68.2441C174.998 68.2441 173.749 67.8739 172.789 67.1333C171.836 66.3846 171.36 65.4406 171.36 64.3013H172.825C172.882 65.1558 173.24 65.8231 173.899 66.3032C174.567 66.7752 175.446 67.0112 176.536 67.0112C177.553 67.0112 178.375 66.7874 179.002 66.3398C179.629 65.8923 179.942 65.3267 179.942 64.6431Z" fill="#CA0000"/>
</svg>
